<svg
              xmlns="http://www.w3.org/2000/svg"
              width="180"
              height="27"
              fill="none"
            >
              <g fill="#4B5563" clip-path="url(#a)">
                <path d="m39.535 25.951.296-1.025c.351-1.219.221-2.344-.37-3.173-.553-.762-1.454-1.21-2.557-1.263l-20.874-.265a.406.406 0 0 1-.373-.553.554.554 0 0 1 .483-.37l21.077-.276c2.487-.114 5.207-2.142 6.155-4.619l1.199-3.14a.74.74 0 0 0 .033-.425 13.727 13.727 0 0 0-26.39-1.42 6.177 6.177 0 0 0-9.674 6.472A8.77 8.77 0 0 0 .094 25.96a.406.406 0 0 0 .4.35h38.552a.506.506 0 0 0 .49-.358ZM46.492 11.505c-.184 0-.378.006-.58.017-.031 0-.061.007-.089.02a.323.323 0 0 0-.21.22l-.83 2.836c-.353 1.219-.223 2.344.371 3.173a3.22 3.22 0 0 0 2.554 1.263l4.452.276a.397.397 0 0 1 .385.355.414.414 0 0 1-.023.195.553.553 0 0 1-.483.37l-4.624.277c-2.512.116-5.218 2.142-6.166 4.615l-.334.874a.248.248 0 0 0 .218.337H57.06a.428.428 0 0 0 .426-.323 11.425 11.425 0 0 0-10.989-14.505h-.005ZM75.459 16.621h2.633v7.202H82.7v2.308h-7.242v-9.51ZM85.43 21.413v-.024c0-2.731 2.211-4.948 5.135-4.948s5.108 2.19 5.108 4.92v.027c0 2.731-2.211 4.945-5.135 4.945s-5.108-2.197-5.108-4.92Zm7.553 0v-.024c0-1.382-.992-2.568-2.445-2.568-1.454 0-2.405 1.166-2.405 2.54v.027c0 1.382.992 2.568 2.432 2.568s2.419-1.169 2.419-2.543M98.898 21.966v-5.345h2.678v5.284c0 1.382.691 2.026 1.752 2.026 1.062 0 1.752-.624 1.752-1.957v-5.353h2.676v5.27c0 3.071-1.752 4.423-4.455 4.423-2.703 0-4.403-1.382-4.403-4.348M111.791 16.621h3.667c3.397 0 5.367 1.957 5.367 4.699v.027c0 2.744-1.998 4.781-5.419 4.781h-3.615v-9.507Zm3.709 7.186c1.575 0 2.623-.87 2.623-2.407v-.025c0-1.523-1.048-2.407-2.623-2.407h-1.081v4.828l1.081.01ZM124.656 16.621h7.606v2.31h-4.969v1.617h4.496v2.187h-4.496v3.396h-2.637v-9.51ZM135.932 16.621h2.634v7.202h4.607v2.308h-7.241v-9.51ZM150.071 16.555h2.54l4.038 9.576h-2.824l-.694-1.697h-3.67l-.677 1.697h-2.764l4.051-9.576Zm2.308 5.826-1.058-2.703-1.084 2.703h2.142ZM160.043 16.621h4.497c1.456 0 2.459.382 3.098 1.034a2.937 2.937 0 0 1 .843 2.21v.028a3.013 3.013 0 0 1-1.957 2.922l2.269 3.316h-3.04l-1.918-2.88h-1.155v2.88h-2.637v-9.51Zm4.375 4.566c.898 0 1.415-.437 1.415-1.128v-.027c0-.75-.553-1.128-1.429-1.128h-1.724v2.283h1.738ZM172.284 16.621h7.65v2.242h-5.041v1.44h4.565v2.078h-4.565v1.509H180v2.241h-7.716v-9.51ZM69.688 22.519a2.333 2.333 0 0 1-2.178 1.426c-1.443 0-2.432-1.197-2.432-2.567v-.028c0-1.382.965-2.543 2.404-2.543a2.388 2.388 0 0 1 2.261 1.578h2.764c-.431-2.263-2.418-3.946-4.997-3.946-2.935 0-5.135 2.21-5.135 4.947v.027c0 2.731 2.172 4.92 5.107 4.92 2.51 0 4.472-1.625 4.989-3.803l-2.783-.011Z" />
              </g>
              <defs>
                <clipPath id="a">
                  <path fill="#fff" d="M0 .133h180v26.189H0z" />
                </clipPath>
              </defs>
            </svg>