<svg
              xmlns="http://www.w3.org/2000/svg"
              width="190"
              height="33"
              fill="none"
            >
              <g fill="#4B5563" clip-path="url(#a)">
                <path d="M16.416 32.17v-6.175c6.554 0 11.596-6.49 9.106-13.36-.945-2.552-2.961-4.6-5.514-5.514-6.869-2.49-13.36 2.552-13.36 9.106H.473c0-10.43 10.083-18.559 21.016-15.156 4.79 1.481 8.57 5.294 10.052 10.052 3.403 10.965-4.695 21.048-15.125 21.048Z" />
                <path
                  fill-rule="evenodd"
                  d="M16.416 25.995h-6.144v-6.144h6.144v6.144ZM10.272 30.721H5.546v-4.726h4.726v4.726ZM5.546 25.995h-3.97v-3.939h3.97v3.939Z"
                  clip-rule="evenodd"
                />
                <path d="M57.19 9.516c-1.828-1.26-4.097-1.922-6.744-1.922H44.68V25.9h5.766c2.647 0 4.916-.661 6.743-2.016 1.008-.693 1.796-1.702 2.332-2.93.535-1.23.819-2.679.819-4.317 0-1.607-.284-3.057-.82-4.286-.535-1.197-1.323-2.174-2.33-2.835Zm-9.139 1.197h1.828c2.017 0 3.687.41 4.947 1.166 1.386.85 2.111 2.458 2.111 4.758 0 2.394-.725 4.064-2.111 4.978-1.197.788-2.867 1.198-4.916 1.198h-1.827l-.032-12.1ZM64.373 7.373c-.567 0-1.04.19-1.418.567-.378.378-.599.851-.599 1.387 0 .567.19 1.04.6 1.418.377.378.85.598 1.417.598.567 0 1.04-.189 1.418-.598.378-.378.599-.883.599-1.418 0-.567-.19-1.04-.6-1.387a1.975 1.975 0 0 0-1.417-.567ZM65.949 13.013h-3.246v12.919h3.246V13.013ZM77.764 14.085c-.976-.883-2.08-1.387-3.245-1.387-1.796 0-3.277.63-4.443 1.828-1.166 1.197-1.733 2.773-1.733 4.631 0 1.828.567 3.372 1.733 4.632 1.166 1.198 2.647 1.828 4.443 1.828 1.26 0 2.332-.347 3.214-1.04v.315c0 1.072-.284 1.89-.85 2.49-.568.566-1.356.85-2.332.85-1.513 0-2.427-.599-3.593-2.142l-2.205 2.11.063.095c.472.662 1.197 1.323 2.174 1.954.977.63 2.174.945 3.624.945 1.922 0 3.497-.599 4.631-1.764 1.166-1.166 1.733-2.742 1.733-4.695V13.013h-3.182l-.032 1.072Zm-.85 7.625c-.567.63-1.292.945-2.237.945-.946 0-1.67-.315-2.206-.945-.567-.63-.85-1.481-.85-2.521 0-1.04.283-1.922.85-2.552.567-.63 1.292-.977 2.206-.977.945 0 1.67.315 2.237.977.567.63.85 1.512.85 2.552s-.315 1.89-.85 2.52ZM86.965 13.013H83.72v12.919h3.245V13.013ZM85.39 7.373c-.567 0-1.04.19-1.418.567-.378.378-.599.851-.599 1.387 0 .567.19 1.04.599 1.418.378.378.85.598 1.418.598.567 0 1.04-.189 1.418-.598.378-.378.598-.883.598-1.418 0-.567-.189-1.04-.599-1.387a1.975 1.975 0 0 0-1.417-.567ZM94.086 9.547h-3.182v3.498h-1.86v2.962h1.86v5.356c0 1.67.346 2.867 1.008 3.56.662.694 1.828 1.04 3.497 1.04.536 0 1.072-.031 1.576-.063h.157V22.94l-1.102.063c-.788 0-1.292-.126-1.544-.41s-.378-.85-.378-1.701v-4.916h3.025v-2.962h-3.025V9.547h-.032ZM115.576 7.594h-3.246V25.9h3.246V7.594ZM148.376 21.3c-.567.662-1.166 1.229-1.638 1.512-.441.284-1.008.442-1.67.442-.945 0-1.733-.347-2.363-1.072-.631-.724-.946-1.638-.946-2.74 0-1.104.315-2.018.914-2.71.63-.725 1.387-1.072 2.332-1.072 1.04 0 2.142.662 3.088 1.764l2.142-2.048c-1.386-1.827-3.182-2.678-5.325-2.678-1.796 0-3.34.662-4.6 1.922-1.26 1.26-1.891 2.899-1.891 4.821 0 1.922.631 3.53 1.891 4.821 1.26 1.292 2.804 1.922 4.6 1.922 2.363 0 4.254-1.008 5.514-2.867l-2.048-2.017ZM161.705 14.81a5.263 5.263 0 0 0-1.859-1.545c-.788-.378-1.67-.567-2.679-.567-1.827 0-3.308.662-4.411 1.985-1.071 1.324-1.638 2.93-1.638 4.853 0 1.953.598 3.56 1.796 4.82 1.166 1.23 2.773 1.86 4.695 1.86 2.174 0 4.001-.883 5.325-2.647l.063-.095-2.111-2.048c-.19.252-.473.504-.725.756-.315.316-.63.536-.945.694-.473.252-1.04.346-1.639.346-.914 0-1.638-.252-2.206-.788-.535-.472-.85-1.134-.913-1.953h8.602l.031-1.198a8.48 8.48 0 0 0-.346-2.394 7.177 7.177 0 0 0-1.04-2.08Zm-7.09 3.056c.158-.63.441-1.135.851-1.544.441-.441 1.008-.662 1.701-.662.788 0 1.387.22 1.796.662.379.41.599.913.662 1.512h-5.01v.032ZM174.183 13.99c-.977-.85-2.332-1.26-4.034-1.26a6.85 6.85 0 0 0-2.993.693c-.851.44-1.67 1.134-2.206 2.08l.032.03 2.079 1.986c.851-1.355 1.796-1.827 3.057-1.827.693 0 1.229.188 1.67.535.441.347.63.82.63 1.386v.63a8.067 8.067 0 0 0-2.395-.377c-1.607 0-2.93.378-3.907 1.134-.977.756-1.481 1.859-1.481 3.214 0 1.197.41 2.206 1.261 2.93.85.693 1.89 1.072 3.119 1.072 1.229 0 2.395-.505 3.435-1.355v1.07h3.182v-8.318c.063-1.543-.441-2.772-1.449-3.623Zm-5.767 6.995c.378-.252.883-.378 1.544-.378.788 0 1.607.157 2.458.473v1.26c-.693.662-1.638.977-2.804.977-.567 0-1.009-.126-1.292-.378-.284-.253-.441-.536-.441-.946 0-.41.189-.756.535-1.008ZM188.173 14.242c-.914-1.008-2.175-1.512-3.782-1.512-1.291 0-2.331.378-3.119 1.102v-.787h-3.182v12.918h3.245v-7.152c0-.977.221-1.765.693-2.3.473-.567 1.072-.82 1.922-.82.725 0 1.292.252 1.702.725.409.504.63 1.166.63 2.017V25.9h3.245v-7.467c0-1.765-.441-3.183-1.354-4.19ZM108.265 13.99c-.976-.85-2.331-1.26-4.033-1.26a6.85 6.85 0 0 0-2.993.693c-.851.44-1.67 1.134-2.206 2.08l.032.03 2.079 1.986c.851-1.355 1.796-1.827 3.057-1.827.693 0 1.228.188 1.67.535.441.347.63.82.63 1.386v.63a8.067 8.067 0 0 0-2.395-.377c-1.607 0-2.93.378-3.907 1.134-.977.756-1.481 1.859-1.481 3.214 0 1.197.41 2.206 1.26 2.93.851.693 1.891 1.072 3.12 1.072s2.394-.505 3.434-1.355v1.07h3.183v-8.318c.031-1.543-.473-2.772-1.45-3.623Zm-5.766 6.995c.378-.252.882-.378 1.544-.378.788 0 1.607.157 2.458.473v1.26c-.693.662-1.639.977-2.805.977-.567 0-1.008-.126-1.291-.378-.284-.253-.442-.536-.442-.946 0-.41.158-.756.536-1.008ZM127.36 26.184c-5.199 0-9.453-4.222-9.453-9.453a9.44 9.44 0 0 1 9.453-9.452c5.199 0 9.453 4.222 9.453 9.452 0 5.23-4.254 9.453-9.453 9.453Zm0-15.534a6.118 6.118 0 0 0-6.113 6.113 6.118 6.118 0 0 0 6.113 6.113 6.12 6.12 0 0 0 6.113-6.113 6.12 6.12 0 0 0-6.113-6.113Z" />
              </g>
              <defs>
                <clipPath id="a">
                  <path fill="#fff" d="M0 0h190v32.454H0z" />
                </clipPath>
              </defs>
            </svg>