<svg
              xmlns="http://www.w3.org/2000/svg"
              width="120"
              height="28"
              fill="none"
            >
              <g clip-path="url(#a)">
                <path
                  fill="#4B5563"
                  d="M60.128 7.467c-4.664 0-8.027 3.042-8.027 7.605 0 4.563 3.781 7.605 8.45 7.605 2.818 0 5.302-1.116 6.84-2.996l-3.232-1.867c-.854.934-2.15 1.479-3.608 1.479-2.024 0-3.743-1.056-4.381-2.746h11.838c.093-.474.148-.964.148-1.48 0-4.558-3.359-7.6-8.028-7.6Zm-3.992 6.126c.528-1.685 1.973-2.746 3.992-2.746 2.024 0 3.469 1.06 3.993 2.746h-7.985ZM55.18 2.82 43.474 23.1 31.763 2.82h4.39l7.317 12.675L50.787 2.82h4.394ZM15.611.708l15.61 27.039H0L15.61.707ZM85.14 15.072c0 2.535 1.656 4.225 4.225 4.225 1.74 0 3.046-.79 3.717-2.079l3.245 1.872c-1.343 2.24-3.861 3.587-6.962 3.587-4.669 0-8.028-3.042-8.028-7.605 0-4.563 3.363-7.605 8.028-7.605 3.1 0 5.615 1.348 6.962 3.587l-3.245 1.872c-.671-1.289-1.977-2.079-3.717-2.079-2.565 0-4.225 1.69-4.225 4.225ZM119.986 2.82v19.434h-3.802V2.82h3.802Zm-14.364 4.647c-4.664 0-8.027 3.042-8.027 7.605 0 4.563 3.785 7.605 8.449 7.605 2.818 0 5.303-1.116 6.84-2.996l-3.232-1.867c-.853.934-2.15 1.479-3.608 1.479-2.023 0-3.743-1.056-4.381-2.746h11.838c.093-.474.148-.964.148-1.48 0-4.558-3.359-7.6-8.027-7.6Zm-3.993 6.126c.529-1.685 1.969-2.746 3.993-2.746 2.023 0 3.468 1.06 3.992 2.746h-7.985ZM80.069 7.89v4.094a4.816 4.816 0 0 0-1.351-.207c-2.455 0-4.225 1.69-4.225 4.225v6.252h-3.802V7.89h3.802v3.887c0-2.147 2.497-3.887 5.577-3.887Z"
                />
              </g>
              <defs>
                <clipPath id="a">
                  <path fill="#fff" d="M0 .708h120v27.039H0z" />
                </clipPath>
              </defs>
            </svg>